<svg xmlns="http://www.w3.org/2000/svg" width="121" height="140" viewBox="0 0 121 140"><path fill="#00AF3F" d="M.193 0H121v140H.193z"/><path fill="#FFF" d="M95.681 99.936c3.876 0 5.681 3.499 5.681 6.998 0 3.341-2.071 6.787-5.681 6.787-3.769 0-5.998-3.446-5.998-6.891 0-3.66 1.964-6.894 5.998-6.894m12.583-8.324c-.849-6.522-5.627-10.286-12.051-10.286-10.563 0-14.597 10.339-14.597 19.405 0 9.385 3.025 19.194 14.279 19.194 7.751 0 13.006-5.992 13.006-13.573 0-2.917-.902-5.992-2.867-8.272-2.123-2.332-5.361-3.818-8.547-3.818-3.609 0-6.317 1.22-8.387 4.136l-.107-.106c.213-4.135 1.646-11.294 7.114-11.294 2.602 0 4.513 2.122 4.991 4.613h7.166zm-43.861 8.324c3.875 0 5.679 3.499 5.679 6.998 0 3.341-2.07 6.787-5.679 6.787-3.77 0-5.999-3.446-5.999-6.891 0-3.66 1.964-6.894 5.999-6.894m12.581-8.324c-.849-6.522-5.627-10.286-12.051-10.286-10.563 0-14.598 10.339-14.598 19.405 0 9.385 3.026 19.194 14.28 19.194 7.751 0 13.005-5.992 13.005-13.573 0-2.917-.902-5.992-2.867-8.272-2.122-2.332-5.361-3.818-8.547-3.818-3.609 0-6.316 1.22-8.387 4.136l-.106-.106c.212-4.135 1.645-11.294 7.113-11.294 2.601 0 4.513 2.122 4.991 4.613h7.167zM20.82 88.325h5.946c8.281 0 10.936 4.878 10.936 12.513 0 8.377-4.618 11.347-9.449 11.347H20.82v-23.86zm-8.334 30.858h16.35c11.573 0 17.199-8.166 17.199-19.141 0-12.566-7.379-18.716-17.199-18.716h-16.35v37.857zM58.173 43.25h-3.526c-.557 0-.954-.447-.954-1v-6h-1.478c-.557 0-.689-.316-.295-.707l8.06-8a1.013 1.013 0 0 1 1.426 0l8.06 8c.394.391.262.707-.295.707h-1.478v6c0 .553-.398 1-.954 1h-3.526a.515.515 0 0 1-.52-.5v-4c0-.276-.21-.5-.488-.5h-3.024a.489.489 0 0 0-.488.5v4c0 .276-.24.5-.52.5z"/></svg>